<svg width="141" height="105" viewBox="0 0 141 105" fill="none" xmlns="http://www.w3.org/2000/svg">
<rect x="1" width="18" height="18" rx="9" fill="url(#paint0_linear_370_219)"/>
<rect y="68" width="16" height="16" rx="8" fill="url(#paint1_linear_370_219)"/>
<rect x="129" y="93" width="12" height="12" rx="6" fill="url(#paint2_linear_370_219)"/>
<rect x="132" y="18" width="8" height="8" rx="4" fill="url(#paint3_linear_370_219)"/>
<path d="M75.8214 2.38025C74.1423 -0.793417 68.9208 -0.793417 67.2418 2.38025L23.5675 84.8762C23.1743 85.6156 22.9794 86.4443 23.0017 87.2814C23.0241 88.1185 23.2628 88.9356 23.6949 89.653C24.1269 90.3704 24.7373 90.9637 25.4668 91.375C26.1962 91.7863 27.0198 92.0016 27.8572 92H115.206C116.043 92.0017 116.866 91.7866 117.595 91.3755C118.324 90.9645 118.934 90.3715 119.365 89.6545C119.797 88.9375 120.035 88.1209 120.057 87.2843C120.079 86.4478 119.884 85.6198 119.491 84.8811L75.8214 2.38025ZM76.3843 77.4419H66.6789V67.7365H76.3843V77.4419ZM66.6789 58.0311V33.7675H76.3843L76.3891 58.0311H66.6789Z" fill="url(#paint4_linear_370_219)"/>
<defs>
<linearGradient id="paint0_linear_370_219" x1="10" y1="0" x2="10" y2="18" gradientUnits="userSpaceOnUse">
<stop stop-color="#E54343"/>
<stop offset="1" stop-color="#F8917A"/>
</linearGradient>
<linearGradient id="paint1_linear_370_219" x1="8" y1="68" x2="8" y2="84" gradientUnits="userSpaceOnUse">
<stop stop-color="#E54343"/>
<stop offset="1" stop-color="#F8917A"/>
</linearGradient>
<linearGradient id="paint2_linear_370_219" x1="135" y1="93" x2="135" y2="105" gradientUnits="userSpaceOnUse">
<stop stop-color="#E54343"/>
<stop offset="1" stop-color="#F8917A"/>
</linearGradient>
<linearGradient id="paint3_linear_370_219" x1="136" y1="18" x2="136" y2="26" gradientUnits="userSpaceOnUse">
<stop stop-color="#E54343"/>
<stop offset="1" stop-color="#F8917A"/>
</linearGradient>
<linearGradient id="paint4_linear_370_219" x1="71.5295" y1="0" x2="71.5295" y2="92" gradientUnits="userSpaceOnUse">
<stop stop-color="#E54343"/>
<stop offset="1" stop-color="#F8917A"/>
</linearGradient>
</defs>
</svg>
