<svg width="1213" height="631" viewBox="0 0 1213 631" fill="none" xmlns="http://www.w3.org/2000/svg">
<g opacity="0.5">
<path d="M919.306 57.8998C921.824 57.8998 921.824 53.918 919.306 53.918C916.787 53.918 916.787 57.8998 919.306 57.8998Z" fill="#63AEC8"/>
<path d="M1132.08 20.2797C1134.59 20.2797 1134.59 16.2979 1132.08 16.2979C1129.56 16.2979 1129.56 20.2797 1132.08 20.2797Z" fill="#63AEC8"/>
<path d="M1123.45 252.839C1125.97 252.839 1125.97 248.857 1123.45 248.857C1120.93 248.857 1120.93 252.839 1123.45 252.839Z" fill="#63AEC8"/>
<path d="M914.993 251.372C917.511 251.372 917.511 247.39 914.993 247.39C912.474 247.39 912.473 251.372 914.993 251.372Z" fill="#63AEC8"/>
<path d="M878.094 133.121C879.353 133.121 879.353 131.13 878.094 131.13C876.835 131.13 876.834 133.121 878.094 133.121Z" fill="#63AEC8"/>
<path d="M846.944 317.8C848.204 317.8 848.204 315.809 846.944 315.809C845.685 315.809 845.685 317.8 846.944 317.8Z" fill="#63AEC8"/>
<path d="M1200.12 310.471C1201.38 310.471 1201.38 308.48 1200.12 308.48C1198.86 308.48 1198.86 310.471 1200.12 310.471Z" fill="#63AEC8"/>
<path d="M1184.31 200.543C1185.57 200.543 1185.57 198.552 1184.31 198.552C1183.05 198.552 1183.05 200.543 1184.31 200.543Z" fill="#63AEC8"/>
<path d="M1201.08 72.538C1202.34 72.538 1202.34 70.5471 1201.08 70.5471C1199.82 70.5471 1199.82 72.538 1201.08 72.538Z" fill="#63AEC8"/>
<path d="M1178.56 275.801C1181.08 275.801 1181.08 271.819 1178.56 271.819C1176.04 271.819 1176.04 275.801 1178.56 275.801Z" fill="white"/>
<path d="M1181.91 1.7128C1184.43 1.7128 1184.43 -2.26904 1181.91 -2.26904C1179.39 -2.26904 1179.39 1.7128 1181.91 1.7128Z" fill="white"/>
<path d="M875.217 283.618C877.735 283.618 877.735 279.636 875.217 279.636C872.699 279.636 872.699 283.618 875.217 283.618Z" fill="white"/>
<path d="M963.391 37.8585C965.28 37.8585 965.28 34.8721 963.391 34.8721C961.502 34.8721 961.502 37.8585 963.391 37.8585Z" fill="white"/>
<path d="M1028.09 295.823C1029.97 295.823 1029.97 292.837 1028.09 292.837C1026.2 292.837 1026.2 295.823 1028.09 295.823Z" fill="white"/>
<path d="M855.57 172.704C857.459 172.704 857.459 169.718 855.57 169.718C853.681 169.718 853.681 172.704 855.57 172.704Z" fill="white"/>
<path d="M1135.43 92.0817C1136.69 92.0817 1136.69 90.0908 1135.43 90.0908C1134.17 90.0908 1134.17 92.0817 1135.43 92.0817Z" fill="white"/>
<path d="M1134.95 322.197C1136.21 322.197 1136.21 320.207 1134.95 320.207C1133.69 320.207 1133.69 322.197 1134.95 322.197Z" fill="white"/>
<path d="M929.849 193.703C931.108 193.703 931.108 191.712 929.849 191.712C928.59 191.712 928.59 193.703 929.849 193.703Z" fill="white"/>
<path d="M849.82 75.9585C851.079 75.9585 851.079 73.9675 849.82 73.9675C848.56 73.9675 848.56 75.9585 849.82 75.9585Z" fill="white"/>
<path d="M1207.31 140.938C1208.57 140.938 1208.57 138.947 1207.31 138.947C1206.05 138.947 1206.05 140.938 1207.31 140.938Z" fill="white"/>
<path d="M909.24 325.129C910.499 325.129 910.499 323.138 909.24 323.138C907.981 323.138 907.981 325.129 909.24 325.129Z" fill="white"/>
<path d="M868.028 220.375C869.035 220.375 869.035 218.782 868.028 218.782C867.021 218.782 867.021 220.375 868.028 220.375Z" fill="white"/>
<path d="M1133.03 180.312C1134.04 180.312 1134.04 178.72 1133.03 178.72C1132.03 178.72 1132.03 180.312 1133.03 180.312Z" fill="white"/>
<path d="M937.515 12.2443C938.522 12.2443 938.522 10.6516 937.515 10.6516C936.507 10.6516 936.507 12.2443 937.515 12.2443Z" fill="white"/>
<path d="M948.536 287.799C949.544 287.799 949.544 286.206 948.536 286.206C947.528 286.206 947.528 287.799 948.536 287.799Z" fill="white"/>
<path d="M1020.9 204.252C1021.91 204.252 1021.91 202.659 1020.9 202.659C1019.89 202.659 1019.89 204.252 1020.9 204.252Z" fill="white"/>
<path d="M891.735 83.7386C893.468 84.7301 894.974 86.0441 896.369 87.4768C896.813 87.9331 897.503 87.2291 897.06 86.7728C895.609 85.282 894.03 83.9091 892.229 82.8786C891.678 82.5648 891.186 83.4249 891.735 83.7386Z" fill="white"/>
<path d="M897.135 83.1519C894.942 83.926 892.868 84.9668 890.77 85.9694C890.2 86.2418 890.696 87.0995 891.263 86.8287C893.284 85.8635 895.281 84.8577 897.395 84.1115C897.986 83.9029 897.732 82.9408 897.135 83.1519Z" fill="white"/>
<path d="M894.108 81.829C894.043 83.9888 893.264 86.037 893.198 88.2C893.178 88.8426 894.154 88.8402 894.174 88.2C894.24 86.0402 895.019 83.9919 895.085 81.829C895.104 81.1863 894.128 81.1887 894.108 81.829Z" fill="white"/>
<path d="M1103.1 288.911C1104.83 289.901 1106.34 291.216 1107.73 292.649C1108.18 293.104 1108.87 292.401 1108.42 291.944C1106.97 290.454 1105.39 289.08 1103.59 288.05C1103.04 287.736 1102.55 288.596 1103.1 288.911Z" fill="white"/>
<path d="M1108.5 288.324C1106.31 289.098 1104.23 290.139 1102.13 291.141C1101.56 291.413 1102.06 292.271 1102.63 292.001C1104.65 291.035 1106.65 290.03 1108.76 289.284C1109.35 289.075 1109.1 288.113 1108.5 288.324Z" fill="white"/>
<path d="M1105.47 287.002C1105.41 289.162 1104.63 291.21 1104.56 293.373C1104.54 294.015 1105.52 294.013 1105.54 293.373C1105.6 291.212 1106.38 289.165 1106.45 287.002C1106.47 286.359 1105.49 286.362 1105.47 287.002Z" fill="white"/>
<path d="M1173.45 136.039C1174.89 136.234 1176.27 136.714 1177.6 137.296C1178.05 137.498 1178.45 136.812 1177.99 136.609C1176.53 135.965 1175.04 135.458 1173.45 135.242C1172.96 135.175 1172.96 135.972 1173.45 136.039Z" fill="white"/>
<path d="M1176.95 134.082C1175.65 135.221 1174.52 136.516 1173.35 137.786C1173.01 138.16 1173.56 138.725 1173.9 138.349C1175.07 137.078 1176.2 135.783 1177.5 134.645C1177.88 134.309 1177.33 133.748 1176.95 134.082Z" fill="white"/>
<path d="M1174.49 133.973C1175.04 135.496 1175.06 137.144 1175.6 138.668C1175.78 139.146 1176.53 138.939 1176.36 138.456C1175.81 136.933 1175.8 135.284 1175.25 133.761C1175.07 133.284 1174.32 133.491 1174.49 133.973Z" fill="white"/>
<path d="M894.543 178.323C895.977 178.518 897.361 178.998 898.685 179.581C899.142 179.782 899.54 179.096 899.079 178.893C897.618 178.25 896.126 177.743 894.543 177.527C894.045 177.459 894.051 178.256 894.543 178.323Z" fill="white"/>
<path d="M898.035 176.366C896.741 177.505 895.606 178.799 894.441 180.07C894.097 180.445 894.648 181.009 894.993 180.633C896.158 179.362 897.292 178.067 898.587 176.929C898.968 176.593 898.413 176.032 898.035 176.366Z" fill="white"/>
<path d="M895.583 176.258C896.132 177.781 896.143 179.43 896.692 180.953C896.864 181.431 897.62 181.224 897.445 180.741C896.897 179.218 896.885 177.569 896.336 176.046C896.164 175.569 895.408 175.775 895.583 176.258Z" fill="white"/>
<path d="M576.217 80.2943C577.951 81.2858 579.457 82.5998 580.852 84.0325C581.295 84.4888 581.986 83.7848 581.542 83.3285C580.092 81.8377 578.512 80.4647 576.711 79.4342C576.16 79.1205 575.668 79.9805 576.217 80.2943Z" fill="white"/>
<path d="M581.617 79.7076C579.424 80.4816 577.35 81.5225 575.252 82.5251C574.683 82.7975 575.179 83.6551 575.745 83.3844C577.766 82.4192 579.764 81.4134 581.877 80.6672C582.468 80.4585 582.214 79.4965 581.617 79.7076Z" fill="white"/>
<path d="M578.591 78.3847C578.525 80.5444 577.746 82.5927 577.68 84.7556C577.66 85.3983 578.637 85.3959 578.656 84.7556C578.723 82.5959 579.502 80.5476 579.567 78.3847C579.587 77.742 578.61 77.7444 578.591 78.3847Z" fill="white"/>
<path d="M787.58 285.466C789.313 286.457 790.819 287.771 792.214 289.205C792.658 289.66 793.348 288.957 792.905 288.5C791.455 287.01 789.875 285.636 788.073 284.606C787.523 284.292 787.031 285.152 787.58 285.466Z" fill="white"/>
<path d="M792.982 284.88C790.788 285.654 788.715 286.695 786.617 287.697C786.047 287.969 786.543 288.827 787.11 288.557C789.132 287.591 791.129 286.586 793.242 285.84C793.833 285.631 793.579 284.669 792.982 284.88Z" fill="white"/>
<path d="M789.954 283.558C789.889 285.718 789.11 287.766 789.044 289.928C789.025 290.571 790.002 290.569 790.021 289.928C790.086 287.768 790.866 285.72 790.931 283.558C790.949 282.915 789.973 282.917 789.954 283.558Z" fill="white"/>
<path d="M857.937 132.594C859.371 132.789 860.755 133.27 862.079 133.852C862.536 134.053 862.934 133.368 862.473 133.165C861.011 132.521 859.519 132.014 857.937 131.798C857.439 131.73 857.445 132.527 857.937 132.594Z" fill="white"/>
<path d="M861.429 130.638C860.135 131.777 859 133.071 857.835 134.342C857.492 134.716 858.043 135.281 858.387 134.905C859.552 133.634 860.687 132.339 861.981 131.201C862.363 130.865 861.808 130.304 861.429 130.638Z" fill="white"/>
<path d="M858.976 130.529C859.526 132.052 859.538 133.7 860.086 135.224C860.258 135.701 861.014 135.495 860.84 135.012C860.291 133.488 860.279 131.84 859.73 130.317C859.557 129.84 858.802 130.046 858.976 130.529Z" fill="white"/>
<path d="M579.026 174.879C580.46 175.074 581.843 175.554 583.167 176.136C583.625 176.338 584.022 175.652 583.562 175.449C582.1 174.806 580.608 174.298 579.026 174.082C578.527 174.015 578.534 174.812 579.026 174.879Z" fill="white"/>
<path d="M582.517 172.921C581.223 174.06 580.088 175.355 578.923 176.625C578.579 177 579.131 177.564 579.475 177.188C580.64 175.917 581.775 174.622 583.069 173.484C583.45 173.148 582.896 172.588 582.517 172.921Z" fill="white"/>
<path d="M580.065 172.814C580.615 174.336 580.626 175.986 581.175 177.508C581.347 177.987 582.102 177.78 581.928 177.296C581.38 175.774 581.368 174.124 580.818 172.602C580.646 172.125 579.891 172.331 580.065 172.814Z" fill="white"/>
<path d="M344.306 363.759C346.824 363.759 346.824 359.777 344.306 359.777C341.787 359.777 341.787 363.759 344.306 363.759Z" fill="#63AEC8"/>
<path d="M557.076 326.139C559.595 326.139 559.595 322.157 557.076 322.157C554.557 322.157 554.557 326.139 557.076 326.139Z" fill="#63AEC8"/>
<path d="M548.449 558.698C550.968 558.698 550.968 554.716 548.449 554.716C545.93 554.716 545.93 558.698 548.449 558.698Z" fill="#63AEC8"/>
<path d="M339.993 557.231C342.511 557.231 342.511 553.25 339.993 553.25C337.474 553.25 337.473 557.231 339.993 557.231Z" fill="#63AEC8"/>
<path d="M585.35 265.538C586.609 265.538 586.609 263.547 585.35 263.547C584.09 263.547 584.09 265.538 585.35 265.538Z" fill="#63AEC8"/>
<path d="M417.624 268.469C418.883 268.469 418.883 266.478 417.624 266.478C416.365 266.478 416.365 268.469 417.624 268.469Z" fill="#63AEC8"/>
<path d="M303.094 438.98C304.353 438.98 304.353 436.989 303.094 436.989C301.835 436.989 301.834 438.98 303.094 438.98Z" fill="#63AEC8"/>
<path d="M271.944 623.659C273.204 623.659 273.204 621.668 271.944 621.668C270.685 621.668 270.685 623.659 271.944 623.659Z" fill="#63AEC8"/>
<path d="M625.124 616.33C626.383 616.33 626.383 614.339 625.124 614.339C623.865 614.339 623.865 616.33 625.124 616.33Z" fill="#63AEC8"/>
<path d="M609.309 506.403C610.568 506.403 610.568 504.412 609.309 504.412C608.05 504.412 608.049 506.403 609.309 506.403Z" fill="#63AEC8"/>
<path d="M626.081 378.397C627.34 378.397 627.34 376.406 626.081 376.406C624.822 376.406 624.822 378.397 626.081 378.397Z" fill="#63AEC8"/>
<path d="M293.028 303.176C295.547 303.176 295.547 299.194 293.028 299.194C290.51 299.194 290.51 303.176 293.028 303.176Z" fill="white"/>
<path d="M603.557 581.66C606.076 581.66 606.076 577.678 603.557 577.678C601.038 577.678 601.038 581.66 603.557 581.66Z" fill="white"/>
<path d="M606.912 307.572C609.432 307.572 609.432 303.59 606.912 303.59C604.393 303.59 604.394 307.572 606.912 307.572Z" fill="white"/>
<path d="M300.217 589.477C302.735 589.477 302.735 585.495 300.217 585.495C297.699 585.495 297.699 589.477 300.217 589.477Z" fill="white"/>
<path d="M388.391 343.718C390.28 343.718 390.28 340.731 388.391 340.731C386.502 340.731 386.502 343.718 388.391 343.718Z" fill="white"/>
<path d="M453.085 601.683C454.974 601.683 454.974 598.696 453.085 598.696C451.196 598.696 451.196 601.683 453.085 601.683Z" fill="white"/>
<path d="M512.987 262.615C514.876 262.615 514.876 259.629 512.987 259.629C511.098 259.629 511.098 262.615 512.987 262.615Z" fill="white"/>
<path d="M280.57 478.563C282.459 478.563 282.459 475.577 280.57 475.577C278.681 475.577 278.681 478.563 280.57 478.563Z" fill="white"/>
<path d="M351.014 268.958C352.273 268.958 352.273 266.967 351.014 266.967C349.755 266.967 349.755 268.958 351.014 268.958Z" fill="white"/>
<path d="M560.428 397.941C561.687 397.941 561.687 395.95 560.428 395.95C559.169 395.95 559.168 397.941 560.428 397.941Z" fill="white"/>
<path d="M559.95 628.057C561.209 628.057 561.209 626.066 559.95 626.066C558.691 626.066 558.691 628.057 559.95 628.057Z" fill="white"/>
<path d="M354.849 499.563C356.108 499.563 356.108 497.572 354.849 497.572C353.59 497.572 353.59 499.563 354.849 499.563Z" fill="white"/>
<path d="M274.82 381.818C276.079 381.818 276.079 379.827 274.82 379.827C273.56 379.827 273.56 381.818 274.82 381.818Z" fill="white"/>
<path d="M632.311 446.797C633.57 446.797 633.57 444.806 632.311 444.806C631.051 444.806 631.051 446.797 632.311 446.797Z" fill="white"/>
<path d="M334.24 630.988C335.499 630.988 335.499 628.997 334.24 628.997C332.981 628.997 332.981 630.988 334.24 630.988Z" fill="white"/>
<path d="M293.028 526.235C294.035 526.235 294.035 524.642 293.028 524.642C292.021 524.642 292.021 526.235 293.028 526.235Z" fill="white"/>
<path d="M558.033 486.172C559.041 486.172 559.041 484.579 558.033 484.579C557.025 484.579 557.025 486.172 558.033 486.172Z" fill="white"/>
<path d="M637.102 262.895C638.11 262.895 638.11 261.303 637.102 261.303C636.095 261.303 636.095 262.895 637.102 262.895Z" fill="white"/>
<path d="M273.381 260.452C274.388 260.452 274.388 258.859 273.381 258.859C272.373 258.859 272.373 260.452 273.381 260.452Z" fill="white"/>
<path d="M362.515 318.104C363.522 318.104 363.522 316.511 362.515 316.511C361.507 316.511 361.507 318.104 362.515 318.104Z" fill="white"/>
<path d="M373.536 593.658C374.544 593.658 374.544 592.065 373.536 592.065C372.528 592.065 372.528 593.658 373.536 593.658Z" fill="white"/>
<path d="M445.898 510.112C446.906 510.112 446.906 508.519 445.898 508.519C444.891 508.519 444.891 510.112 445.898 510.112Z" fill="white"/>
<path d="M316.735 389.598C318.468 390.589 319.974 391.904 321.369 393.336C321.813 393.792 322.503 393.088 322.06 392.632C320.609 391.141 319.03 389.768 317.229 388.738C316.678 388.424 316.186 389.284 316.735 389.598Z" fill="white"/>
<path d="M322.135 389.011C319.942 389.785 317.868 390.826 315.77 391.829C315.2 392.101 315.696 392.959 316.263 392.688C318.284 391.723 320.281 390.717 322.395 389.971C322.986 389.762 322.732 388.8 322.135 389.011Z" fill="white"/>
<path d="M319.108 387.688C319.043 389.848 318.264 391.896 318.198 394.059C318.178 394.702 319.154 394.7 319.174 394.059C319.24 391.9 320.019 389.851 320.085 387.688C320.104 387.046 319.128 387.048 319.108 387.688Z" fill="white"/>
<path d="M508.825 291.406C510.558 292.398 512.064 293.712 513.459 295.144C513.903 295.601 514.593 294.897 514.15 294.44C512.699 292.949 511.12 291.577 509.318 290.546C508.768 290.232 508.276 291.092 508.825 291.406Z" fill="white"/>
<path d="M514.226 290.818C512.033 291.592 509.959 292.633 507.861 293.636C507.291 293.908 507.786 294.766 508.354 294.495C510.376 293.53 512.372 292.524 514.486 291.778C515.077 291.57 514.823 290.608 514.226 290.818Z" fill="white"/>
<path d="M511.197 289.496C511.133 291.657 510.353 293.705 510.287 295.867C510.268 296.51 511.245 296.508 511.264 295.867C511.329 293.708 512.109 291.659 512.174 289.496C512.193 288.854 511.217 288.856 511.197 289.496Z" fill="white"/>
<path d="M528.097 594.77C529.831 595.761 531.336 597.075 532.732 598.508C533.175 598.964 533.866 598.261 533.423 597.804C531.972 596.314 530.392 594.94 528.59 593.909C528.04 593.596 527.548 594.456 528.097 594.77Z" fill="white"/>
<path d="M533.5 594.184C531.306 594.958 529.232 595.999 527.134 597C526.564 597.273 527.06 598.13 527.627 597.86C529.65 596.894 531.646 595.889 533.76 595.143C534.35 594.935 534.096 593.973 533.5 594.184Z" fill="white"/>
<path d="M530.472 592.861C530.407 595.022 529.627 597.069 529.562 599.232C529.542 599.875 530.519 599.872 530.538 599.232C530.604 597.072 531.383 595.024 531.448 592.861C531.467 592.219 530.491 592.221 530.472 592.861Z" fill="white"/>
<path d="M598.454 441.898C599.889 442.093 601.273 442.573 602.597 443.156C603.054 443.357 603.452 442.671 602.99 442.468C601.529 441.825 600.037 441.318 598.454 441.102C597.956 441.034 597.962 441.831 598.454 441.898Z" fill="white"/>
<path d="M601.946 439.941C600.653 441.08 599.518 442.375 598.352 443.645C598.01 444.02 598.56 444.584 598.905 444.208C600.069 442.937 601.204 441.642 602.499 440.504C602.881 440.168 602.325 439.608 601.946 439.941Z" fill="white"/>
<path d="M599.493 439.833C600.043 441.355 600.055 443.004 600.603 444.527C600.776 445.005 601.531 444.799 601.357 444.315C600.809 442.792 600.796 441.144 600.247 439.621C600.075 439.144 599.32 439.35 599.493 439.833Z" fill="white"/>
<path d="M319.543 484.183C320.977 484.378 322.361 484.858 323.685 485.44C324.142 485.641 324.54 484.956 324.079 484.753C322.618 484.109 321.126 483.602 319.543 483.386C319.045 483.318 319.051 484.116 319.543 484.183Z" fill="white"/>
<path d="M323.035 482.225C321.741 483.364 320.606 484.659 319.441 485.929C319.097 486.304 319.648 486.868 319.993 486.492C321.158 485.221 322.292 483.926 323.587 482.788C323.968 482.452 323.413 481.891 323.035 482.225Z" fill="white"/>
<path d="M320.583 482.117C321.132 483.64 321.143 485.289 321.692 486.812C321.864 487.291 322.62 487.084 322.445 486.6C321.897 485.077 321.885 483.428 321.336 481.906C321.164 481.429 320.408 481.635 320.583 482.117Z" fill="white"/>
<path d="M386.954 289.321C388.389 289.516 389.772 289.996 391.096 290.578C391.553 290.78 391.951 290.094 391.49 289.891C390.029 289.248 388.537 288.74 386.954 288.525C386.456 288.457 386.462 289.254 386.954 289.321Z" fill="white"/>
<path d="M390.445 287.363C389.151 288.502 388.016 289.797 386.851 291.067C386.507 291.442 387.059 292.006 387.403 291.63C388.568 290.359 389.703 289.064 390.996 287.926C391.379 287.59 390.824 287.03 390.445 287.363Z" fill="white"/>
<path d="M387.993 287.255C388.543 288.778 388.554 290.427 389.103 291.95C389.275 292.428 390.03 292.222 389.856 291.738C389.307 290.215 389.296 288.566 388.746 287.044C388.573 286.566 387.819 286.772 387.993 287.255Z" fill="white"/>
<path d="M1.21829 386.154C2.95158 387.145 4.45757 388.459 5.85264 389.892C6.29631 390.348 6.98681 389.644 6.54314 389.188C5.09261 387.697 3.5132 386.324 1.71196 385.294C1.16127 384.98 0.66917 385.84 1.21829 386.154Z" fill="white"/>
<path d="M6.61736 385.567C4.424 386.341 2.35014 387.382 0.252071 388.384C-0.317361 388.657 0.178649 389.515 0.744956 389.244C2.76648 388.279 4.76378 387.273 6.87747 386.527C7.46799 386.318 7.21413 385.356 6.61736 385.567Z" fill="white"/>
<path d="M3.59075 384.244C3.52514 386.404 2.74637 388.452 2.67998 390.615C2.66045 391.258 3.63684 391.255 3.65637 390.615C3.72276 388.455 4.50153 386.407 4.56715 384.244C4.58667 383.601 3.61028 383.604 3.59075 384.244Z" fill="white"/>
<path d="M193.307 287.962C195.04 288.953 196.546 290.267 197.942 291.7C198.385 292.156 199.076 291.452 198.633 290.996C197.181 289.505 195.602 288.132 193.8 287.102C193.25 286.788 192.758 287.648 193.307 287.962Z" fill="white"/>
<path d="M198.708 287.374C196.515 288.148 194.441 289.189 192.343 290.192C191.774 290.463 192.269 291.322 192.836 291.051C194.858 290.086 196.855 289.08 198.968 288.334C199.559 288.126 199.305 287.164 198.708 287.374Z" fill="white"/>
<path d="M195.68 286.052C195.615 288.213 194.835 290.26 194.77 292.423C194.75 293.066 195.727 293.063 195.746 292.423C195.812 290.263 196.591 288.215 196.656 286.052C196.676 285.409 195.699 285.412 195.68 286.052Z" fill="white"/>
<path d="M212.58 591.326C214.313 592.317 215.819 593.631 217.214 595.064C217.658 595.52 218.348 594.816 217.905 594.359C216.455 592.869 214.875 591.495 213.073 590.465C212.523 590.151 212.031 591.011 212.58 591.326Z" fill="white"/>
<path d="M217.982 590.739C215.788 591.513 213.715 592.554 211.617 593.556C211.047 593.828 211.543 594.686 212.11 594.416C214.132 593.45 216.129 592.445 218.242 591.699C218.833 591.49 218.579 590.528 217.982 590.739Z" fill="white"/>
<path d="M214.954 589.417C214.889 591.577 214.11 593.625 214.044 595.788C214.025 596.431 215.002 596.428 215.021 595.788C215.086 593.627 215.866 591.58 215.931 589.417C215.949 588.774 214.973 588.777 214.954 589.417Z" fill="white"/>
<path d="M282.937 438.454C284.371 438.649 285.755 439.129 287.079 439.711C287.536 439.913 287.934 439.227 287.473 439.024C286.011 438.381 284.519 437.873 282.937 437.657C282.439 437.59 282.445 438.387 282.937 438.454Z" fill="white"/>
<path d="M286.429 436.497C285.135 437.636 284 438.931 282.835 440.201C282.492 440.575 283.043 441.14 283.387 440.764C284.552 439.493 285.687 438.198 286.981 437.06C287.363 436.724 286.808 436.163 286.429 436.497Z" fill="white"/>
<path d="M283.976 436.388C284.526 437.911 284.538 439.56 285.086 441.083C285.258 441.561 286.014 441.355 285.84 440.871C285.291 439.348 285.279 437.699 284.73 436.177C284.557 435.7 283.802 435.906 283.976 436.388Z" fill="white"/>
<path d="M4.02572 480.738C5.45984 480.933 6.84319 481.413 8.16718 481.996C8.62491 482.197 9.0225 481.511 8.56164 481.308C7.10018 480.665 5.60825 480.158 4.02572 479.942C3.52737 479.874 3.53362 480.671 4.02572 480.738Z" fill="white"/>
<path d="M7.51696 478.781C6.22343 479.92 5.08848 481.214 3.92306 482.485C3.57937 482.86 4.13084 483.424 4.47531 483.048C5.63995 481.777 6.7749 480.482 8.0692 479.344C8.45039 479.008 7.8958 478.447 7.51696 478.781Z" fill="white"/>
<path d="M5.06496 478.673C5.61486 480.196 5.62579 481.845 6.17492 483.368C6.34676 483.846 7.1021 483.639 6.92791 483.156C6.37957 481.633 6.36785 479.984 5.81795 478.461C5.6461 477.984 4.89077 478.19 5.06496 478.673Z" fill="white"/>
<path d="M71.4359 285.877C72.87 286.072 74.2534 286.552 75.5773 287.134C76.0343 287.336 76.4327 286.65 75.9718 286.447C74.5103 285.803 73.0184 285.296 71.4359 285.08C70.9375 285.013 70.9438 285.81 71.4359 285.877Z" fill="white"/>
<path d="M74.9252 283.919C73.6316 285.058 72.4967 286.353 71.3313 287.623C70.9876 287.997 71.539 288.562 71.8835 288.186C73.0481 286.915 74.1831 285.62 75.4766 284.482C75.8594 284.146 75.3048 283.585 74.9252 283.919Z" fill="white"/>
<path d="M72.4732 283.811C73.0231 285.334 73.034 286.982 73.5831 288.506C73.755 288.983 74.5103 288.777 74.3361 288.294C73.7878 286.77 73.7761 285.122 73.2262 283.599C73.0536 283.121 72.299 283.328 72.4732 283.811Z" fill="white"/>
</g>
</svg>
